<?xml version="1.0" encoding="UTF-8"?>
<svg xmlns="http://www.w3.org/2000/svg" xmlns:xlink="http://www.w3.org/1999/xlink" width="108pt" height="107pt" viewBox="0 0 108 107" version="1.1">
<g id="surface1">
<path style=" stroke:none;fill-rule:nonzero;fill:rgb(36.078431%,55.294118%,73.72549%);fill-opacity:1;" d="M 107.816406 31.472656 C 107.816406 29.679688 107.382812 28.09375 106.5 26.730469 C 105.632812 25.394531 104.339844 24.273438 102.597656 23.386719 C 88.246094 16.097656 73.875 8.832031 59.527344 1.535156 C 55.660156 -0.429688 51.90625 -0.359375 48.066406 1.636719 C 42.355469 4.601562 13.75 19.035156 5.226562 23.382812 C 1.714844 25.171875 0.0078125 27.910156 0.00390625 31.46875 C 0 46.125 0.00390625 60.785156 0 75.441406 C 0 77.195312 0.417969 78.75 1.261719 80.089844 C 2.125 81.46875 3.441406 82.621094 5.21875 83.527344 C 13.746094 87.875 42.355469 102.304688 48.066406 105.273438 C 51.90625 107.269531 55.660156 107.339844 59.527344 105.375 C 73.878906 98.078125 88.246094 90.8125 102.605469 83.523438 C 104.382812 82.617188 105.699219 81.464844 106.5625 80.085938 C 107.40625 78.746094 107.824219 77.191406 107.824219 75.4375 C 107.824219 75.4375 107.824219 46.128906 107.816406 31.472656 "/>
<path style=" stroke:none;fill-rule:nonzero;fill:rgb(10.196078%,27.45098%,45.490196%);fill-opacity:1;" d="M 54.078125 53.3125 L 1.261719 80.089844 C 2.125 81.46875 3.441406 82.621094 5.21875 83.527344 C 13.746094 87.875 42.355469 102.304688 48.066406 105.273438 C 51.90625 107.269531 55.660156 107.339844 59.527344 105.375 C 73.878906 98.078125 88.246094 90.8125 102.605469 83.523438 C 104.382812 82.617188 105.699219 81.464844 106.5625 80.085938 L 54.078125 53.3125 "/>
<path style=" stroke:none;fill-rule:nonzero;fill:rgb(10.196078%,27.45098%,45.490196%);fill-opacity:1;" d="M 38.433594 61.246094 C 41.507812 65.96875 47.285156 69.15625 53.910156 69.15625 C 60.582031 69.15625 66.390625 65.929688 69.449219 61.152344 L 54.078125 53.3125 L 38.433594 61.246094 "/>
<path style=" stroke:none;fill-rule:nonzero;fill:rgb(10.588235%,34.901961%,55.686275%);fill-opacity:1;" d="M 107.816406 31.472656 C 107.816406 29.679688 107.382812 28.09375 106.5 26.730469 L 54.078125 53.3125 L 106.5625 80.085938 C 107.40625 78.746094 107.824219 77.191406 107.824219 75.4375 C 107.824219 75.4375 107.824219 46.128906 107.816406 31.472656 "/>
<path style=" stroke:none;fill-rule:nonzero;fill:rgb(100%,100%,100%);fill-opacity:1;" d="M 104.933594 55.226562 L 100.832031 55.226562 L 100.832031 58.839844 L 96.726562 58.839844 L 96.726562 55.226562 L 92.628906 55.226562 L 92.628906 51.613281 L 96.726562 51.613281 L 96.726562 48.003906 L 100.832031 48.003906 L 100.832031 51.613281 L 104.933594 51.613281 L 104.933594 55.226562 M 89.964844 55.226562 L 85.863281 55.226562 L 85.863281 58.839844 L 81.761719 58.839844 L 81.761719 55.226562 L 77.664062 55.226562 L 77.664062 51.613281 L 81.761719 51.613281 L 81.761719 48.003906 L 85.863281 48.003906 L 85.863281 51.613281 L 89.964844 51.613281 L 89.964844 55.226562 "/>
<path style=" stroke:none;fill-rule:nonzero;fill:rgb(100%,100%,100%);fill-opacity:1;" d="M 69.449219 61.152344 C 66.390625 65.929688 60.582031 69.15625 53.910156 69.15625 C 47.285156 69.15625 41.507812 65.96875 38.433594 61.246094 C 36.890625 58.875 36.078125 56.1875 36.082031 53.453125 C 36.082031 44.785156 44.066406 37.753906 53.910156 37.753906 C 60.496094 37.753906 66.242188 40.902344 69.332031 45.578125 L 84.917969 37.675781 C 78.722656 28.257812 67.15625 21.925781 53.910156 21.925781 C 34.136719 21.925781 18.105469 36.042969 18.105469 53.453125 C 18.105469 59.167969 19.832031 64.523438 22.847656 69.144531 C 29.027344 78.613281 40.625 84.984375 53.910156 84.984375 C 67.222656 84.984375 78.839844 78.585938 85.011719 69.09375 L 69.449219 61.152344 "/>
</g>
</svg>
